<svg width="168" height="168" viewBox="0 0 168 168" fill="none" xmlns="http://www.w3.org/2000/svg">
<g id="32/Cloudy-clear at times">
<g id="for edit">
<path id="Union" d="M97.532 30.3857C119.498 30.3857 137.306 48.1931 137.306 70.1592L137.293 71.1865C137.122 77.9202 135.277 84.2378 132.16 89.7393C128.85 88.2585 125.245 87.3166 121.458 87.0293C124.826 82.2607 126.806 76.4414 126.806 70.1592C126.806 53.9921 113.699 40.8857 97.532 40.8857C87.2639 40.886 78.2316 46.1738 73.0066 54.1738C69.3901 53.3266 65.6197 52.8779 61.7449 52.8779C61.73 52.8779 61.7148 52.8779 61.7 52.8779C68.131 39.568 81.7591 30.3861 97.532 30.3857ZM157.5 75.4102H144.716V64.9102H157.5V75.4102ZM152.133 44.877L141.06 51.2695L135.81 42.1758L146.883 35.7842L152.133 44.877ZM78.948 26.9395L69.8542 32.1895L63.4626 21.1182L72.5554 15.8682L78.948 26.9395ZM132.217 21.1182L125.825 32.1895L116.731 26.9395L123.124 15.8682L132.217 21.1182ZM103.091 23.2842H92.5906V10.5H103.091V23.2842Z" fill="url(#paint0_linear_40_516)"/>
<path id="Union_2" d="M65.625 43.3125C89.6753 43.3125 110.127 59.2645 117.658 81.5098C117.637 81.5116 117.616 81.5138 117.595 81.5156C118.635 81.424 119.687 81.375 120.75 81.375C141.046 81.3751 157.5 98.4162 157.5 119.438C157.5 140.02 141.726 156.783 122.017 157.475V157.5H66.6592V157.489C66.3152 157.496 65.9705 157.5 65.625 157.5C35.1803 157.5 10.5 131.938 10.5 100.406C10.5 68.8742 35.1803 43.3125 65.625 43.3125ZM65.625 53.8125C41.3235 53.8125 21 74.3229 21 100.406C21 126.49 41.3235 147 65.625 147C65.697 147 65.7689 146.997 65.8408 146.997V147H120.735V146.999C120.74 146.999 120.745 147 120.75 147C134.903 147 147 135.01 147 119.438C147 103.865 134.903 91.8751 120.75 91.875C116.916 91.875 113.233 92.756 109.9 94.3486C109.447 90.7423 108.593 87.2668 107.389 83.9697C107.631 83.8718 107.875 83.7773 108.119 83.6846C107.878 83.7758 107.639 83.8686 107.4 83.9648C100.992 66.201 84.5109 53.8125 65.625 53.8125Z" fill="url(#paint1_linear_40_516)"/>
</g>
<path id="Union_3" d="M97.532 30.3857C119.498 30.3857 137.306 48.1931 137.306 70.1592L137.293 71.1865C137.122 77.9202 135.277 84.2378 132.16 89.7393C128.85 88.2585 125.245 87.3166 121.458 87.0293C124.826 82.2607 126.806 76.4414 126.806 70.1592C126.806 53.9921 113.699 40.8857 97.532 40.8857C87.2639 40.886 78.2316 46.1738 73.0066 54.1738C69.3901 53.3266 65.6197 52.8779 61.7449 52.8779C61.73 52.8779 61.7148 52.8779 61.7 52.8779C68.131 39.568 81.7591 30.3861 97.532 30.3857ZM157.5 75.4102H144.716V64.9102H157.5V75.4102ZM152.133 44.877L141.06 51.2695L135.81 42.1758L146.883 35.7842L152.133 44.877ZM78.948 26.9395L69.8542 32.1895L63.4626 21.1182L72.5554 15.8682L78.948 26.9395ZM132.217 21.1182L125.825 32.1895L116.731 26.9395L123.124 15.8682L132.217 21.1182ZM103.091 23.2842H92.5906V10.5H103.091V23.2842Z" fill="url(#paint2_linear_40_516)"/>
<path id="Union_4" d="M65.625 43.3125C89.6753 43.3125 110.127 59.2645 117.658 81.5098C117.637 81.5116 117.616 81.5138 117.595 81.5156C118.635 81.424 119.687 81.375 120.75 81.375C141.046 81.3751 157.5 98.4162 157.5 119.438C157.5 140.02 141.726 156.783 122.017 157.475V157.5H66.6592V157.489C66.3152 157.496 65.9705 157.5 65.625 157.5C35.1803 157.5 10.5 131.938 10.5 100.406C10.5 68.8742 35.1803 43.3125 65.625 43.3125ZM65.625 53.8125C41.3235 53.8125 21 74.3229 21 100.406C21 126.49 41.3235 147 65.625 147C65.697 147 65.7689 146.997 65.8408 146.997V147H120.735V146.999C120.74 146.999 120.745 147 120.75 147C134.903 147 147 135.01 147 119.438C147 103.865 134.903 91.8751 120.75 91.875C116.916 91.875 113.233 92.756 109.9 94.3486C109.447 90.7423 108.593 87.2668 107.389 83.9697C107.631 83.8718 107.875 83.7773 108.119 83.6846C107.878 83.7758 107.639 83.8686 107.4 83.9648C100.992 66.201 84.5109 53.8125 65.625 53.8125Z" fill="url(#paint3_linear_40_516)"/>
</g>
<defs>
<linearGradient id="paint0_linear_40_516" x1="109.6" y1="10.5" x2="109.6" y2="89.7393" gradientUnits="userSpaceOnUse">
<stop stop-color="#EFC977"/>
<stop offset="1" stop-color="#E07256"/>
</linearGradient>
<linearGradient id="paint1_linear_40_516" x1="84" y1="43.3125" x2="84" y2="157.5" gradientUnits="userSpaceOnUse">
<stop stop-color="#B2D4F7"/>
<stop offset="1" stop-color="#D9E2F3"/>
</linearGradient>
<linearGradient id="paint2_linear_40_516" x1="109.6" y1="10.5" x2="109.6" y2="89.7393" gradientUnits="userSpaceOnUse">
<stop stop-color="#EFC977"/>
<stop offset="1" stop-color="#E07256"/>
</linearGradient>
<linearGradient id="paint3_linear_40_516" x1="84" y1="43.3125" x2="84" y2="157.5" gradientUnits="userSpaceOnUse">
<stop stop-color="#B2D4F7"/>
<stop offset="1" stop-color="#D9E2F3"/>
</linearGradient>
</defs>
</svg>
