<svg width="37" height="37" viewBox="0 0 37 37" fill="none" xmlns="http://www.w3.org/2000/svg">
<g id="Icon">
<path fill-rule="evenodd" clip-rule="evenodd" d="M18.2292 3.125C9.88737 3.125 3.125 9.88737 3.125 18.2292C3.125 26.571 9.88737 33.3333 18.2292 33.3333C26.571 33.3333 33.3333 26.571 33.3333 18.2292C33.3333 9.88737 26.571 3.125 18.2292 3.125ZM0 18.2292C0 8.16148 8.16148 0 18.2292 0C28.2969 0 36.4583 8.16148 36.4583 18.2292C36.4583 28.2969 28.2969 36.4583 18.2292 36.4583C8.16148 36.4583 0 28.2969 0 18.2292Z" fill="white"/>
<path fill-rule="evenodd" clip-rule="evenodd" d="M15.8329 12.6224C13.888 14.2225 12.5886 16.473 12.1754 18.9574L11.263 24.4425C10.7892 27.2909 14.1012 29.203 16.331 27.3685L20.625 23.8359C22.57 22.2358 23.8693 19.9852 24.2826 17.5008L25.1949 12.0158C25.6687 9.16739 22.3568 7.25523 20.1269 9.08973L15.8329 12.6224ZM18.2292 15.1042C16.5033 15.1042 15.1042 16.5033 15.1042 18.2292C15.1042 19.9551 16.5033 21.3542 18.2292 21.3542C19.9551 21.3542 21.3542 19.9551 21.3542 18.2292C21.3542 16.5033 19.9551 15.1042 18.2292 15.1042Z" fill="white"/>
</g>
</svg>
