<svg width="25" height="33" viewBox="0 0 25 33" fill="none" xmlns="http://www.w3.org/2000/svg">
<path id="outline" fill-rule="evenodd" clip-rule="evenodd" d="M22 22.5002C22 26.374 18.1317 30.25 12.375 30.25C6.61825 30.25 2.75 26.374 2.75 22.5002C2.75 18.4822 5.36332 13.4783 8.43496 9.12217C9.82328 7.15329 11.2166 5.43825 12.3062 4.17131C13.4165 5.53725 14.8573 7.39664 16.2928 9.49509C17.7895 11.683 19.2453 14.0797 20.3179 16.4123C21.4102 18.7877 22 20.8733 22 22.5002ZM0 22.5002C0 15.0246 7.05544 6.01008 10.5116 2.04274C11.6326 0.755844 12.375 0 12.375 0C12.375 0 13.0862 0.786181 14.1676 2.10313C17.5971 6.27962 24.75 15.7942 24.75 22.5002C24.75 28.2991 19.2095 33 12.375 33C5.54048 33 0 28.2991 0 22.5002ZM6.18522 17.875H9.14363C8.587 19.1454 8.25 20.3502 8.25 21.3751C8.25 22.9489 9.7895 24.75 12.375 24.75V27.5C8.57804 27.5 5.5 24.7578 5.5 21.3751C5.5 20.2464 5.76263 19.0574 6.18522 17.875Z" fill="white"/>
</svg>
