<svg width="29" height="35" viewBox="0 0 29 35" fill="none" xmlns="http://www.w3.org/2000/svg">
<g id="Icon">
<path fill-rule="evenodd" clip-rule="evenodd" d="M6.25981 14.5833C6.25981 10.2111 9.80422 6.66667 14.1765 6.66667C18.5487 6.66667 22.0931 10.2111 22.0931 14.5833C22.0931 18.9556 18.5487 22.5 14.1765 22.5C9.80422 22.5 6.25981 18.9556 6.25981 14.5833ZM14.1765 9.16667C11.1849 9.16667 8.75981 11.5918 8.75981 14.5833C8.75981 17.5749 11.1849 20 14.1765 20C17.168 20 19.5931 17.5749 19.5931 14.5833C19.5931 11.5918 17.168 9.16667 14.1765 9.16667Z" fill="white"/>
<path fill-rule="evenodd" clip-rule="evenodd" d="M0.0504128 12.6781C0.640958 5.51373 6.62788 0 13.8165 0H14.5364C21.7251 0 27.712 5.51373 28.3025 12.6781C28.6198 16.5267 27.431 20.3482 24.9865 23.3376L16.9981 33.1073C15.5398 34.8908 12.8132 34.8908 11.3548 33.1073L3.36641 23.3376C0.921983 20.3482 -0.266819 16.5267 0.0504128 12.6781ZM13.8165 2.5C7.92896 2.5 3.02562 7.0158 2.54196 12.8835C2.27794 16.0865 3.26735 19.2671 5.30178 21.7551L13.2902 31.5248C13.7483 32.0849 14.6047 32.0849 15.0627 31.5248L23.0512 21.7551C25.0856 19.2671 26.075 16.0865 25.811 12.8835C25.3273 7.01579 20.424 2.5 14.5364 2.5H13.8165Z" fill="white"/>
</g>
</svg>
