<svg width="21" height="21" viewBox="0 0 21 21" fill="none" xmlns="http://www.w3.org/2000/svg">
<path id="Icon" fill-rule="evenodd" clip-rule="evenodd" d="M12.7908 14.0282C9.69879 16.5046 5.17278 16.3097 2.30653 13.4435C-0.768845 10.3681 -0.768845 5.38191 2.30653 2.30653C5.38191 -0.768845 10.3681 -0.768844 13.4435 2.30653C16.3097 5.17278 16.5046 9.69878 14.0282 12.7908L20.0431 18.8057C20.3848 19.1474 20.3848 19.7014 20.0431 20.0431C19.7014 20.3848 19.1474 20.3848 18.8057 20.0431L12.7908 14.0282ZM3.54397 12.206C1.15201 9.81407 1.15201 5.93593 3.54397 3.54397C5.93593 1.15201 9.81407 1.15201 12.206 3.54397C14.5962 5.93418 14.598 9.80837 12.2113 12.2008C12.2095 12.2025 12.2078 12.2042 12.206 12.206C12.2043 12.2078 12.2025 12.2095 12.2008 12.2113C9.80838 14.598 5.93418 14.5962 3.54397 12.206Z" fill="white"/>
</svg>
