<svg width="33" height="27" viewBox="0 0 33 27" fill="none" xmlns="http://www.w3.org/2000/svg">
<path id="outline" fill-rule="evenodd" clip-rule="evenodd" d="M13.7502 5.49225L13.7502 5.48416L5.96666 5.48406L13.4328 2.7862L13.432 2.78398C13.575 2.74793 13.723 2.7351 13.8703 2.74609C13.8897 2.74754 13.9091 2.7494 13.9285 2.75168L13.9288 2.75171C14.131 2.77553 14.3254 2.84398 14.4979 2.95211L14.4979 2.95213C14.6704 3.06026 14.8168 3.20538 14.9264 3.377L14.9266 3.37728C15.0362 3.54891 15.1062 3.74274 15.1318 3.94476L15.1318 3.94515C15.1573 4.14726 15.1376 4.35251 15.0741 4.54607L15.0741 4.54622C15.0105 4.73982 14.9048 4.91688 14.7644 5.06458L14.7643 5.06472C14.624 5.21236 14.4527 5.32697 14.2627 5.40027L14.2623 5.40041C14.2444 5.4073 14.2264 5.4138 14.2083 5.41992C14.0607 5.46984 13.9058 5.49427 13.7502 5.49225ZM0 4.71568V8.23422L13.7219 8.23439C14.243 8.24023 14.7614 8.14702 15.2491 7.95886L15.2495 7.95872C15.6207 7.81546 15.9682 7.61951 16.2816 7.37778C16.4485 7.24906 16.6057 7.10736 16.7516 6.95372L16.7518 6.95358C17.1719 6.51138 17.4885 5.98132 17.6787 5.40173L17.6788 5.40158C17.869 4.822 17.9281 4.20738 17.8518 3.60216L17.8517 3.60177C17.7754 2.99654 17.5655 2.41584 17.2373 1.90167L17.2372 1.90139C16.9089 1.38716 16.4704 0.952331 15.9536 0.628362L15.9536 0.628347C15.7739 0.515764 15.5864 0.417548 15.3927 0.334319C15.0291 0.178048 14.6438 0.0746175 14.2485 0.0281466L14.2482 0.0281122C13.6593 -0.0410797 13.0626 0.0178399 12.4989 0.200596L12.4985 0.199424L12.4563 0.214669L12.4513 0.216344L12.4508 0.216538L12.4508 0.216661L0 4.71568ZM0 16.4973V19.3222L18.158 25.7821L18.1578 25.7827C18.8149 26.0449 19.5218 26.1589 20.228 26.1165C20.4995 26.1002 20.7684 26.061 21.0319 25.9996C21.4535 25.9013 21.8612 25.7462 22.2435 25.5376C22.8646 25.1987 23.4034 24.727 23.8213 24.156C24.2393 23.585 24.5262 22.9288 24.6616 22.2342C24.797 21.5396 24.7776 20.8237 24.6047 20.1374C24.4318 19.4512 24.1098 18.8115 23.6614 18.2641C23.3855 17.9271 23.0659 17.6301 22.712 17.3805C22.4909 17.2247 22.2565 17.0873 22.011 16.9701C21.3734 16.6659 20.6767 16.5059 19.9703 16.5015V16.4974L0 16.4973ZM19.9517 19.2476L7.99576 19.2476L19.2283 23.2437L19.2272 23.2465C19.4942 23.345 19.7789 23.3872 20.0634 23.3701C20.3658 23.352 20.6605 23.2673 20.9265 23.1222C21.1924 22.9771 21.4231 22.7751 21.6021 22.5306C21.7811 22.2861 21.904 22.0051 21.962 21.7076C22.0199 21.4102 22.0116 21.1036 21.9376 20.8097C21.8636 20.5159 21.7256 20.242 21.5337 20.0075C21.3417 19.7731 21.1004 19.5839 20.8269 19.4534C20.5539 19.3231 20.2555 19.2546 19.9529 19.2527L19.9517 19.2527L19.9517 19.2522L19.9517 19.2476ZM26.1498 5.84116L26.1486 5.84184L24.7962 3.44735L24.7947 3.44458L24.7974 3.44305C25.5296 3.02981 26.3468 2.78997 27.1862 2.74199C27.3079 2.73503 27.4297 2.73213 27.5512 2.73326C28.2687 2.73994 28.9791 2.88701 29.6421 3.16745C30.4174 3.49541 31.1072 3.997 31.6581 4.6336C32.2091 5.2702 32.6067 6.02481 32.8202 6.83931C33.0337 7.65382 33.0574 8.50647 32.8896 9.3316C32.7217 10.1567 32.3668 10.9323 31.8521 11.5986C31.412 12.1683 30.8651 12.6451 30.2433 13.003C30.1379 13.0637 30.0304 13.121 29.9208 13.1747C29.1649 13.5453 28.3341 13.7374 27.4923 13.7363V13.7359H0V10.9859H27.4962L27.4962 10.9829C27.9167 10.9835 28.3317 10.8875 28.7093 10.7024C29.0868 10.5172 29.4169 10.2479 29.674 9.91506C29.9311 9.58222 30.1084 9.19479 30.1923 8.78261C30.2761 8.37043 30.2643 7.9445 30.1576 7.53763C30.051 7.13076 29.8524 6.7538 29.5771 6.4358C29.3019 6.1178 28.9574 5.86723 28.5701 5.70341C28.1828 5.53959 27.763 5.46688 27.3432 5.49088C26.9239 5.51485 26.5156 5.63468 26.1498 5.84116Z" fill="white"/>
</svg>
