<svg width="56" height="56" viewBox="0 0 56 56" fill="none" xmlns="http://www.w3.org/2000/svg">
<g id="32/Sunny">
<path id="outline" fill-rule="evenodd" clip-rule="evenodd" d="M26.25 8.75V3.5H29.75V8.75H26.25ZM36.1096 10.4542L38.7346 5.90753L41.7657 7.65753L39.1407 12.2042L36.1096 10.4542ZM28 40.25C34.7655 40.25 40.25 34.7655 40.25 28C40.25 21.2345 34.7655 15.75 28 15.75C21.2345 15.75 15.75 21.2345 15.75 28C15.75 34.7655 21.2345 40.25 28 40.25ZM28 43.75C36.6985 43.75 43.75 36.6985 43.75 28C43.75 19.3015 36.6985 12.25 28 12.25C19.3015 12.25 12.25 19.3015 12.25 28C12.25 36.6985 19.3015 43.75 28 43.75ZM47.25 26.25H52.5V29.75H47.25V26.25ZM48.3426 14.2345L43.7959 16.8595L45.5459 19.8905L50.0926 17.2655L48.3426 14.2345ZM14.2345 7.65753L16.8595 12.2042L19.8905 10.4542L17.2655 5.90753L14.2345 7.65753ZM10.4541 19.8905L5.90743 17.2655L7.65742 14.2345L12.2041 16.8595L10.4541 19.8905ZM26.25 47.25V52.5H29.75V47.25H26.25ZM8.75 26.25H3.5V29.75H8.75V26.25ZM5.90733 38.7345L10.454 36.1095L12.204 39.1405L7.65733 41.7655L5.90733 38.7345ZM16.8596 43.7961L14.2346 48.3428L17.2657 50.0928L19.8906 45.5461L16.8596 43.7961ZM38.7345 50.0928L36.1095 45.5461L39.1405 43.7961L41.7655 48.3428L38.7345 50.0928ZM43.796 39.1405L48.3427 41.7655L50.0927 38.7345L45.546 36.1095L43.796 39.1405Z" fill="url(#paint0_linear_28_144)"/>
</g>
<defs>
<linearGradient id="paint0_linear_28_144" x1="28" y1="3.5" x2="28" y2="52.5" gradientUnits="userSpaceOnUse">
<stop stop-color="#EFC977"/>
<stop offset="1" stop-color="#E07256"/>
</linearGradient>
</defs>
</svg>
