<?xml version="1.0"?>
<svg width="256" height="256" xmlns="http://www.w3.org/2000/svg" xmlns:svg="http://www.w3.org/2000/svg" version="1.1" xml:space="preserve">

 <g class="layer">
  <title>Layer 1</title>
  <g fill="none" fill-rule="nonzero" id="svg_1" stroke-miterlimit="10" stroke-width="0" transform="matrix(2.81 0 0 2.81 0 0)">
   <path d="m10.77,26.29c-0.04,-0.5 -0.06,-1 -0.06,-1.52c0,-12.43 10.08,-22.5 22.51,-22.5c8.99,0 16.75,5.27 20.36,12.9c2.71,-1.93 6.02,-3.08 9.6,-3.08c8.3,0 15.15,6.08 16.41,14.01c5.71,1.57 9.91,6.78 9.91,12.98c0,7.44 -6.03,13.47 -13.47,13.47l-61.06,0c-7.44,0 -13.47,-6.03 -13.47,-13.47c0,-5.97 3.89,-11.02 9.27,-12.79z" fill="rgb(98,195,247)" fill-rule="nonzero" id="svg_2" stroke-miterlimit="10"/>
   <path d="m76.03,53.55l-61.06,0c-7.98,0 -14.47,-6.49 -14.47,-14.47c0,-6 3.68,-11.33 9.23,-13.48c-0.01,-0.27 -0.02,-0.55 -0.02,-0.82c0,-12.97 10.54,-23.51 23.51,-23.51c8.66,0 16.68,4.84 20.74,12.44c2.78,-1.71 5.95,-2.62 9.23,-2.62c8.5,0 15.67,5.95 17.28,14.23c5.94,1.91 10.03,7.48 10.03,13.76c0,7.98 -6.49,14.47 -14.47,14.47zm-42.81,-50.28c-11.86,0 -21.51,9.64 -21.51,21.5c0,0.49 0.02,0.97 0.05,1.45c0.03,0.46 -0.25,0.88 -0.68,1.02c-5.13,1.69 -8.58,6.45 -8.58,11.84c0,6.88 5.59,12.47 12.47,12.47l61.06,0c6.88,0 12.47,-5.59 12.47,-12.47c0,-5.59 -3.77,-10.53 -9.17,-12.01c-0.38,-0.11 -0.67,-0.42 -0.73,-0.81c-1.21,-7.63 -7.69,-13.17 -15.42,-13.17c-3.24,0 -6.37,1 -9.03,2.89c-0.24,0.17 -0.54,0.23 -0.83,0.15c-0.28,-0.07 -0.52,-0.27 -0.65,-0.54c-3.54,-7.49 -11.18,-12.32 -19.45,-12.32z" fill="rgb(0,0,0)" fill-rule="nonzero" id="svg_3" stroke-miterlimit="10"/>
   <polyline fill="rgb(249,193,0)" fill-rule="nonzero" id="svg_14" points="38.05056631565094,32.430567383766174 32.81056845188141,46.94056570529938 40.05056631565094,46.94056570529938 32.48056662082672,68.57056677341461 58.520567536354065,40.60056555271149 49.48056662082672,40.81056845188141 54.89056646823883,32.430567383766174 38.05056631565094,32.430567383766174 " stroke-miterlimit="10"/>
   <path d="m31.48,69.57c-0.18,0 -0.36,-0.04 -0.52,-0.14c-0.41,-0.25 -0.58,-0.74 -0.43,-1.19l7.11,-20.3l-5.83,0c-0.33,0 -0.63,-0.16 -0.82,-0.42c-0.19,-0.27 -0.23,-0.61 -0.12,-0.92l5.24,-14.52c0.14,-0.39 0.52,-0.66 0.94,-0.66l16.84,0c0.36,0 0.7,0.2 0.88,0.52c0.17,0.33 0.16,0.72 -0.04,1.03l-4.39,6.79l7.16,-0.16c0.4,-0.02 0.77,0.23 0.94,0.59c0.16,0.37 0.09,0.8 -0.18,1.09l-26.05,27.98c-0.2,0.21 -0.46,0.31 -0.73,0.31zm1.75,-23.63l5.82,0c0.32,0 0.63,0.16 0.81,0.43s0.24,0.6 0.13,0.9l-6,17.13l21.18,-22.74l-6.67,0.15c-0.38,0.02 -0.72,-0.19 -0.9,-0.51c-0.18,-0.32 -0.17,-0.72 0.03,-1.03l4.42,-6.84l-14.3,0l-4.52,12.51z" fill="rgb(0,0,0)" fill-rule="nonzero" id="svg_15" stroke-miterlimit="10"/>
  </g>
 </g>
</svg>